<svg id="visual" viewBox="0 0 900 600" width="900" height="600" xmlns="http://www.w3.org/2000/svg" xmlns:xlink="http://www.w3.org/1999/xlink" version="1.1"><rect x="0" y="0" width="900" height="600" fill="#9988ae"></rect><defs><linearGradient id="grad1_0" x1="33.3%" y1="0%" x2="100%" y2="100%"><stop offset="20%" stop-color="#9988ae" stop-opacity="1"></stop><stop offset="80%" stop-color="#9988ae" stop-opacity="1"></stop></linearGradient></defs><defs><linearGradient id="grad2_0" x1="0%" y1="0%" x2="66.7%" y2="100%"><stop offset="20%" stop-color="#9988ae" stop-opacity="1"></stop><stop offset="80%" stop-color="#9988ae" stop-opacity="1"></stop></linearGradient></defs><g transform="translate(900, 0)"><path d="M0 486.7C-68.7 486.1 -137.5 485.5 -186.3 449.7C-235.1 413.9 -263.9 342.8 -288.5 288.5C-313.1 234.2 -333.5 196.8 -365.9 151.5C-398.2 106.3 -442.5 53.1 -486.7 0L0 0Z" fill="#716282"></path></g><g transform="translate(0, 600)"><path d="M0 -486.7C56.5 -457.7 113 -428.7 167.2 -403.7C221.5 -378.8 273.5 -357.9 323.9 -323.9C374.2 -289.8 422.8 -242.5 449.7 -186.3C476.6 -130.1 481.7 -65 486.7 0L0 0Z" fill="#716282"></path></g></svg>